<svg id="Layer_1" data-name="Layer 1" xmlns="http://www.w3.org/2000/svg" viewBox="0 0 24 24"><defs><style>.cls-1{fill:#fc4767;}</style></defs><path class="cls-1" d="M22.826,3.58A2.251,2.251,0,0,0,21.01,0H2.992A2.25,2.25,0,0,0,1.164,3.563l7.1,10.171v8.015a2.259,2.259,0,0,0,2.25874,2.25926q.09676,0,.19326-.00826a2.9,2.9,0,0,0,1.573-.408c2.733-1.7,2.445-1.524,2.471-1.543a2.261,2.261,0,0,0,.9-1.8V13.737Zm-9.437,9.04a1.25,1.25,0,0,0-.229.721v6.481a.5.5,0,0,1-.244.43c-.328.194-.923.547-1.405.827a.5.5,0,0,1-.751-.432V13.341a1.24206,1.24206,0,0,0-.225-.715L4.018,3.287a.5.5,0,0,1,.41-.786H19.563a.5.5,0,0,1,.409.788Z"/></svg>