<svg id="Layer_1" data-name="Layer 1" xmlns="http://www.w3.org/2000/svg" viewBox="0 0 512 512"><g id="_1._cup_award_sport_training_gym_fitness" data-name="1. cup, award, sport, training, gym, fitness"><path d="M256.012,303.979a3.99554,3.99554,0,0,1-.965-7.872C400.555,259.725,397.338,94.602,396.127,32.44c-.094-4.768-.172-8.918-.172-12.338a3.998,3.998,0,1,1,7.996,0c0,3.377.078,7.474.172,12.182,1.25,63.906,4.553,233.649-147.139,271.57A3.78528,3.78528,0,0,1,256.012,303.979Z"/><path d="M294.047,271.993a3.999,3.999,0,0,1-1.968-7.481c90.07-50.849,88.432-178.441,87.885-220.369a3.99833,3.99833,0,0,1,7.996-.102c.555,43.099,2.248,174.257-91.945,227.437A3.99269,3.99269,0,0,1,294.047,271.993Z"/><path d="M217.982,271.993a3.95931,3.95931,0,0,1-1.96-.516c-94.198-53.18-92.503-184.338-91.949-227.437a3.998,3.998,0,0,1,3.999-3.947h.051a3.99917,3.99917,0,0,1,3.948,4.049c-.543,41.928-2.187,169.521,87.88,220.369a3.99818,3.99818,0,0,1-1.969,7.482Z"/><path d="M256.083,303.979a3.8044,3.8044,0,0,1-.973-.125C103.418,265.934,106.725,96.19,107.971,32.284c.09-4.708.172-8.805.172-12.182a3.9985,3.9985,0,0,1,7.997,0c0,3.42-.082,7.57-.172,12.338-1.21,62.161-4.428,227.284,141.08,263.667a3.99567,3.99567,0,0,1-.965,7.872Z"/><path d="M399.953,24.101H112.297a3.998,3.998,0,1,1,0-7.996H399.953a3.998,3.998,0,0,1,0,7.996Z"/><path d="M375.965,240.007c-.102,0-.211-.004-.32-.012a3.999,3.999,0,0,1-3.664-4.307c1.391-17.438,20.086-36.75,43.748-61.2,33.938-35.074,76.186-78.728,76.186-130.396a3.998,3.998,0,1,1,7.996,0c0,54.902-43.496,99.844-78.436,135.957-21.662,22.377-40.357,41.7-41.527,56.28A3.99386,3.99386,0,0,1,375.965,240.007Z"/><path d="M393.785,184.031a3.996,3.996,0,0,1-2.906-6.739c4.217-4.482,8.699-9.117,13.354-13.928,31.947-33.013,71.688-74.081,71.688-119.272a3.999,3.999,0,0,1,7.998,0c0,48.425-40.982,90.785-73.922,124.821-4.654,4.799-9.105,9.41-13.307,13.861A3.971,3.971,0,0,1,393.785,184.031Z"/><path d="M415.947,48.09a3.99483,3.99483,0,0,1-3.998-3.998A44.0268,44.0268,0,0,1,455.929.112a3.998,3.998,0,0,1,0,7.996,36.023,36.023,0,0,0-35.984,35.984A3.99613,3.99613,0,0,1,415.947,48.09Z"/><path d="M495.912,48.09a3.99484,3.99484,0,0,1-3.998-3.998A36.0243,36.0243,0,0,0,455.93,8.108a3.998,3.998,0,0,1,0-7.996,44.02745,44.02745,0,0,1,43.98,43.98A3.99613,3.99613,0,0,1,495.912,48.09Z"/><path d="M431.939,48.09a3.9961,3.9961,0,0,1-3.998-3.998,28.021,28.021,0,0,1,27.988-27.987,3.998,3.998,0,0,1,0,7.996,20.01267,20.01267,0,0,0-19.992,19.991A3.99424,3.99424,0,0,1,431.939,48.09Z"/><path d="M479.92,48.09a3.99655,3.99655,0,0,1-4-3.998,20.01223,20.01223,0,0,0-19.99-19.991,3.998,3.998,0,0,1,0-7.996,28.02224,28.02224,0,0,1,27.988,27.987A3.99617,3.99617,0,0,1,479.92,48.09Z"/><path d="M393.746,257.718a21.87342,21.87342,0,0,1-21.852-21.85,3.999,3.999,0,0,1,7.998,0,13.87048,13.87048,0,0,0,13.854,13.854,10.29344,10.29344,0,0,0,10.283-10.277,7.43445,7.43445,0,0,0-7.426-7.434,5.14971,5.14971,0,0,0-5.146,5.139,3.998,3.998,0,1,1-7.996,0,13.15458,13.15458,0,0,1,13.143-13.136,15.446,15.446,0,0,1,15.424,15.431A18.2986,18.2986,0,0,1,393.746,257.718Z"/><path d="M136.033,240.007a3.99716,3.99716,0,0,1-3.982-3.678c-1.164-14.58-19.867-33.903-41.521-56.28C55.583,143.936,12.09,98.994,12.09,44.092a3.9985,3.9985,0,0,1,7.997,0c0,51.669,42.244,95.322,76.19,130.396,23.661,24.45,42.349,43.763,43.746,61.2a4.00185,4.00185,0,0,1-3.666,4.307C136.248,240.003,136.138,240.007,136.033,240.007Z"/><path d="M118.216,184.031a4.00056,4.00056,0,0,1-2.909-1.253c-4.205-4.455-8.66-9.066-13.287-13.85C69.07,134.877,28.083,92.517,28.083,44.092a3.9985,3.9985,0,0,1,7.997,0c0,45.191,39.741,86.26,71.672,119.261,4.666,4.822,9.145,9.457,13.374,13.936a3.99689,3.99689,0,0,1-2.91,6.742Z"/><path d="M96.054,48.09a3.99634,3.99634,0,0,1-3.999-3.998A36.023,36.023,0,0,0,56.071,8.108a3.998,3.998,0,1,1,0-7.996,44.03022,44.03022,0,0,1,43.981,43.98A3.99549,3.99549,0,0,1,96.054,48.09Z"/><path d="M16.088,48.09a3.99549,3.99549,0,0,1-3.998-3.998A44.02958,44.02958,0,0,1,56.071.112a3.998,3.998,0,1,1,0,7.996A36.02366,36.02366,0,0,0,20.087,44.092,3.99634,3.99634,0,0,1,16.088,48.09Z"/><path d="M80.061,48.09a3.99549,3.99549,0,0,1-3.998-3.998A20.01524,20.01524,0,0,0,56.071,24.101a3.998,3.998,0,1,1,0-7.996A28.02159,28.02159,0,0,1,84.059,44.092,3.99549,3.99549,0,0,1,80.061,48.09Z"/><path d="M32.082,48.09a3.99549,3.99549,0,0,1-3.998-3.998A28.021,28.021,0,0,1,56.072,16.105a3.998,3.998,0,1,1,0,7.996A20.015,20.015,0,0,0,36.081,44.092,3.997,3.997,0,0,1,32.082,48.09Z"/><path d="M118.248,257.718a18.29083,18.29083,0,0,1-18.273-18.273,15.44083,15.44083,0,0,1,15.415-15.431,13.158,13.158,0,0,1,13.15,13.136,3.998,3.998,0,1,1-7.996,0,5.15143,5.15143,0,0,0-5.154-5.139,7.43277,7.43277,0,0,0-7.418,7.434,10.2896,10.2896,0,0,0,10.277,10.277,13.87178,13.87178,0,0,0,13.854-13.854,3.998,3.998,0,0,1,7.996,0A21.87512,21.87512,0,0,1,118.248,257.718Z"/><path d="M303.996,367.951a4.0222,4.0222,0,0,1-2.398-.796c-33.205-24.911-33.586-57.788-33.586-59.178a4.00172,4.00172,0,0,1,3.982-3.998h.016a4.00822,4.00822,0,0,1,3.998,3.982c0,.305.508,30.378,30.385,52.79a3.99829,3.99829,0,0,1-2.397,7.2Z"/><path d="M208.041,367.951a4.0003,4.0003,0,0,1-2.402-7.2c29.878-22.412,30.386-52.485,30.386-52.79a4.00757,4.00757,0,0,1,3.998-3.982h.012a4.00579,4.00579,0,0,1,3.986,3.998c0,1.39-.383,34.267-33.587,59.178A4.02255,4.02255,0,0,1,208.041,367.951Z"/><path d="M343.979,471.906a3.99483,3.99483,0,0,1-3.998-3.998v-91.96H172.052v91.96a3.9985,3.9985,0,0,1-7.997,0V371.949a3.997,3.997,0,0,1,3.999-3.998H343.978a3.99674,3.99674,0,0,1,3.998,3.998v95.959A3.99461,3.99461,0,0,1,343.979,471.906Z"/><path d="M359.971,511.889H152.061a3.99548,3.99548,0,0,1-3.998-3.998V475.905a3.9961,3.9961,0,0,1,3.998-3.998h207.91a3.99547,3.99547,0,0,1,3.998,3.998v31.986A3.99483,3.99483,0,0,1,359.971,511.889Zm-203.912-7.996H355.973V479.904H156.059Z"/><path d="M303.996,455.913H208.037a3.99548,3.99548,0,0,1-3.998-3.998,4.00338,4.00338,0,0,0-3.999-3.998,3.99569,3.99569,0,0,1-3.998-3.999V411.933a3.99633,3.99633,0,0,1,3.998-3.999,4.00274,4.00274,0,0,0,3.999-3.998,3.99548,3.99548,0,0,1,3.998-3.998h95.959a3.9961,3.9961,0,0,1,3.998,3.998,4.00445,4.00445,0,0,0,3.998,3.998,3.997,3.997,0,0,1,3.998,3.999v31.985a3.99633,3.99633,0,0,1-3.998,3.999,4.00508,4.00508,0,0,0-3.998,3.998A3.99611,3.99611,0,0,1,303.996,455.913Zm-92.644-7.996h89.332a12.02259,12.02259,0,0,1,7.311-7.31V415.243a12.02011,12.02011,0,0,1-7.311-7.31H211.352a12.04054,12.04054,0,0,1-7.313,7.31v25.364A12.04312,12.04312,0,0,1,211.352,447.917Z"/><path d="M288.002,423.928H224.03a3.99849,3.99849,0,0,1,0-7.997h63.972a3.99849,3.99849,0,0,1,0,7.997Z"/><path d="M272.01,439.92H240.023a3.998,3.998,0,1,1,0-7.996H272.01a3.998,3.998,0,1,1,0,7.996Z"/><path d="M343.979,495.896H168.054a3.99849,3.99849,0,1,1,0-7.997H343.978a3.99849,3.99849,0,0,1,.001,7.997Z"/><path d="M220.391,199.056a3.99862,3.99862,0,0,1-3.94-4.674l6.47-37.737L195.5,129.918a3.997,3.997,0,0,1,2.217-6.818l37.894-5.509,16.945-34.333c1.344-2.733,5.827-2.733,7.168,0l16.947,34.333,37.865,5.509a3.99533,3.99533,0,0,1,2.218,6.818l-27.402,26.723,6.473,37.741a4.00245,4.00245,0,0,1-5.809,4.214l-33.876-17.816-33.888,17.816A4.00516,4.00516,0,0,1,220.391,199.056Zm-13.506-69.208,23.123,22.537a3.99686,3.99686,0,0,1,1.148,3.538l-5.455,31.825,28.578-15.024a3.98149,3.98149,0,0,1,3.726,0l28.568,15.024-5.457-31.825a4.00615,4.00615,0,0,1,1.154-3.538l23.107-22.537-31.932-4.646a3.979,3.979,0,0,1-3.014-2.187L256.14,94.063l-14.291,28.952a3.99092,3.99092,0,0,1-3.01,2.187Z"/></g></svg>