<svg id="Layer_1" data-name="Layer 1" xmlns="http://www.w3.org/2000/svg" viewBox="0 0 100 100"><defs><style>.cls-1{fill:#fbe7a1;}.cls-2{fill:#ffca2f;}.cls-3{fill:#e9a220;}</style></defs><circle class="cls-1" cx="50" cy="50" r="50"/><path class="cls-2" d="M27,28V25.14017A2.14215,2.14215,0,0,1,29.14167,23H70.85833A2.14254,2.14254,0,0,1,73,25.14017V28h7.9483a2.04064,2.04064,0,0,1,2.05081,2.14121L82.32924,47.0087A8.388,8.388,0,0,1,74.01148,55H70.90327A22.51737,22.51737,0,0,1,54,67.73028V74.9l8.91431,2.00572A2.79379,2.79379,0,0,1,65,79.51762v2.41112A1.06516,1.06516,0,0,1,63.93229,83H36.06771A1.06946,1.06946,0,0,1,35,81.92874V79.51762a2.803,2.803,0,0,1,2.08569-2.6119L46,74.9V67.73017A22.52041,22.52041,0,0,1,29.097,55H25.98852a8.388,8.388,0,0,1-8.31776-7.9913l-.66988-16.86749A2.04065,2.04065,0,0,1,19.0517,28Zm46,5V50h1.55388a2.68833,2.68833,0,0,0,2.64342-2.49015L77.998,34.06343A.99316.99316,0,0,0,76.98792,33ZM27,33H23.01208a.99316.99316,0,0,0-1.01,1.06343l.80066,13.44642A2.68833,2.68833,0,0,0,25.44612,50H27Z"/><path class="cls-3" d="M50,50l-5.29174,2.782c-.973.51151-1.60977.04048-1.42523-1.03549l1.01063-5.89244-4.28111-4.17305c-.78713-.76726-.53594-1.51848.54439-1.67546l5.91635-.85969,2.64587-5.36112c.48647-.98571,1.27855-.97894,1.76168,0l2.64587,5.36112,5.91635.85969c1.08779.15807,1.32612.91346.54439,1.67546L55.70634,45.8541,56.717,51.74654c.18582,1.0834-.459,1.5435-1.42523,1.03549Z"/></svg>