<svg id="Layer_1" data-name="Layer 1" xmlns="http://www.w3.org/2000/svg" viewBox="0 0 324 324"><defs><style>.cls-1{fill:#fc4767;}</style></defs><circle class="cls-1" cx="67.24748" cy="86.38895" r="20.98226"/><circle class="cls-1" cx="67.24748" cy="159.43784" r="20.98226"/><circle class="cls-1" cx="67.24748" cy="232.48673" r="20.98226"/><path class="cls-1" d="M277.41261,95.45748H119.4607a10.84624,10.84624,0,0,1,0-21.69248H277.41261a10.84624,10.84624,0,1,1,0,21.69248Z"/><path class="cls-1" d="M277.41261,173.41306H119.4607a10.84624,10.84624,0,0,1,0-21.69248H277.41261a10.84624,10.84624,0,1,1,0,21.69248Z"/><path class="cls-1" d="M277.41261,251.37042H119.4607a10.84625,10.84625,0,0,1,0-21.69249H277.41261a10.84624,10.84624,0,0,1,0,21.69249Z"/></svg>