<svg id="Layer_1" data-name="Layer 1" xmlns="http://www.w3.org/2000/svg" viewBox="0 0 324 324"><defs><style>.cls-1{fill:#fc4767;}</style></defs><path class="cls-1" d="M156.65,254.07432a10.26483,10.26483,0,0,0,8.643-4.73208c20.0985-31.44112,66.84445-108.15006,66.84445-141.5107a75.49769,75.49769,0,1,0-150.99537,0c0,33.36064,46.74595,110.07984,66.85471,141.5107A10.193,10.193,0,0,0,156.65,254.07432ZM120.72317,104.20807A35.92684,35.92684,0,1,1,156.65,140.13491,35.92684,35.92684,0,0,1,120.72317,104.20807Z"/><path class="cls-1" d="M155.411,290.97c-32.31321,0-107.47358-3.165-107.47358-32.491,0-20.23072,33.95165-25.88733,46.73546-28.0173A12.27548,12.27548,0,1,1,98.709,254.67862a144.64421,144.64421,0,0,0-17.3195,3.82635c13.33929,3.88829,38.48333,7.91246,74.02146,7.91246,35.51015,0,60.6422-4.01817,73.98948-7.90447a154.73463,154.73463,0,0,0-20.52444-4.34985,12.27546,12.27546,0,0,1,3.68449-24.27287c34.80283,5.283,50.324,14.10056,50.324,28.58876C262.88456,287.80505,187.72419,290.97,155.411,290.97Zm84.45151-28.0173h0Z"/></svg>