<svg id="Layer_1" data-name="Layer 1" xmlns="http://www.w3.org/2000/svg" viewBox="0 0 324 324"><defs><style>.cls-1{fill:#fc4767;}</style></defs><path class="cls-1" d="M257.73115,140.57842H241.91336a76.07348,76.07348,0,0,0-6.48173-15.6309l11.188-11.17949a12.74256,12.74256,0,0,0,.00577-18.02072l-.00577-.00578L234.59912,83.738a12.74259,12.74259,0,0,0-18.018,0L205.38463,94.926a75.65671,75.65671,0,0,0-15.61391-6.48173V72.618a12.74258,12.74258,0,0,0-12.74258-12.74258H160.038A12.74258,12.74258,0,0,0,147.29546,72.618V88.44428a76.19188,76.19188,0,0,0-15.6224,6.48173L120.47658,83.738a12.74259,12.74259,0,0,0-18.018,0L90.43807,95.75a12.74258,12.74258,0,0,0-.00578,18.02073l.00578.00577,11.19648,11.188a75.41885,75.41885,0,0,0-6.48173,15.6139H79.335A12.74258,12.74258,0,0,0,66.59246,153.321v16.99011A12.74258,12.74258,0,0,0,79.335,183.05369H95.15282a75.41925,75.41925,0,0,0,6.48173,15.6224l-11.205,11.205a12.74257,12.74257,0,0,0,0,18.018l12.012,12.012a13.12486,13.12486,0,0,0,18.0265,0l11.19648-11.188a76.26011,76.26011,0,0,0,15.6309,6.49022v15.8008A12.74258,12.74258,0,0,0,160.038,263.75669h16.9901a12.74258,12.74258,0,0,0,12.74258-12.74258v-15.8008a76.1588,76.1588,0,0,0,15.62241-6.48173l11.19649,11.188a12.74259,12.74259,0,0,0,18.018,0l12.012-12.012a12.74259,12.74259,0,0,0,0-18.018l-11.188-11.188a75.68308,75.68308,0,0,0,6.48173-15.63089h15.81777a12.7426,12.7426,0,0,0,12.74259-12.74257V153.321A12.74259,12.74259,0,0,0,257.73115,140.57842Zm-89.19806,63.7129a42.47527,42.47527,0,1,1,42.47527-42.47527A42.47526,42.47526,0,0,1,168.53309,204.29132Z"/></svg>